<?xml version="1.0" encoding="utf-8"?>
<!-- Generator: Adobe Illustrator 23.0.2, SVG Export Plug-In . SVG Version: 6.00 Build 0)  -->
<svg version="1.1" id="Layer_1" xmlns="http://www.w3.org/2000/svg" xmlns:xlink="http://www.w3.org/1999/xlink" x="0px" y="0px"
	 viewBox="0 0 29.9 28.1" style="enable-background:new 0 0 29.9 28.1;" xml:space="preserve">
<title>ic_home</title>
<desc>Created with Sketch.</desc>
<g>
	<path d="M2,25.8V8.1C2,4.5,4.2,2,7.6,2c3.4,0,5.6,2.5,5.6,6.1v17.6c0,0.2-0.1,0.3-0.3,0.3h-1.4c-0.2,0-0.3-0.1-0.3-0.3V8.1
		c0-2.5-1.4-4.2-3.6-4.2S4,5.6,4,8.1v17.6c0,0.2-0.1,0.3-0.3,0.3H2.3C2.1,26.1,2,26,2,25.8z"/>
	<path d="M16.8,25.8V2.7c0-0.2,0.1-0.3,0.3-0.3h1.4c0.2,0,0.3,0.1,0.3,0.3v10.4h3.5l3.5-10.5c0.1-0.2,0.2-0.3,0.4-0.3h1.4
		c0.2,0,0.3,0.1,0.3,0.4l-3.7,10.7c2.3,0.8,3.6,2.9,3.6,5.7v6.6c0,0.2-0.1,0.3-0.3,0.3h-1.4c-0.2,0-0.3-0.1-0.3-0.3v-6.6
		c0-2.5-1.4-4.2-3.5-4.2h-3.4v10.8c0,0.2-0.1,0.3-0.3,0.3h-1.4C17,26.1,16.8,26,16.8,25.8z"/>
</g>
</svg>
